<svg width="1671" height="900" viewBox="0 0 1671 900" fill="none" xmlns="http://www.w3.org/2000/svg">
<rect width="1671" height="900" fill="#D4BFAF"/>
<path fill-rule="evenodd" clip-rule="evenodd" d="M1163.36 703.089C1165.66 702.411 1169.48 702.159 1169.98 700.987C1172.61 694.824 1180.84 700.792 1183.94 696.433C1184.54 697.579 1185.18 698.718 1185.74 699.875C1186.07 700.542 1186.29 701.241 1186.56 701.926C1187.26 701.341 1187.87 700.655 1188.68 700.19C1191.69 698.461 1194.73 696.77 1197.89 695.226C1198.03 695.157 1200.05 696.677 1200.05 697.454C1200 710.63 1206.53 722.598 1210.03 735.123C1213.65 748.087 1215.02 761.629 1215.47 774.959C1216.22 797.563 1214.73 820.155 1208.58 842.354C1207.65 845.708 1205.99 848.934 1204.55 852.187C1202.33 857.185 1198.58 859.632 1191.3 858.958C1186.51 858.515 1181.47 860.156 1176.5 860.431C1169.43 860.823 1162.33 860.86 1155.24 860.934C1154.26 860.944 1152.88 860.516 1152.34 859.913C1149.23 856.42 1146.55 853.561 1142.17 859.272C1141.68 859.898 1135.59 857.982 1132.34 856.815C1131.34 856.456 1131.14 854.658 1130.58 853.519C1126.81 856.208 1123.35 852.756 1120.3 853.071C1114.69 853.65 1111.78 853.814 1109.04 850.001C1107.21 847.446 1105.77 844.636 1104.69 841.809C1091.61 807.691 1089.17 773.075 1097.6 738.007C1100.06 727.767 1102.7 717.552 1105.54 707.379C1106.24 704.885 1105.86 701.373 1111.87 701.837C1113.61 701.971 1115.46 699.321 1116.14 702.881C1116.22 703.323 1118.14 704.068 1118.67 703.843C1122.52 702.204 1124.27 702.727 1123.9 706.495C1123.84 707.156 1125.01 707.896 1125.62 708.6C1126.26 708.1 1127.05 707.676 1127.51 707.086C1128.33 706.048 1128.61 704.438 1129.73 703.902C1132.97 702.349 1136.52 701.213 1139.96 699.913C1140.49 702.189 1141.12 704.454 1141.54 706.744C1142.11 709.818 1142.52 712.911 1143 715.995C1144.33 713.14 1145.88 710.336 1146.95 707.417C1148.31 703.679 1149.18 700.505 1155.16 704.558C1156.51 705.474 1160.73 703.644 1163.63 703.079L1163.36 703.089ZM1354.21 706.16C1356.79 707.362 1359.22 708.934 1361.99 709.618C1363.49 709.989 1365.97 709.213 1367.3 708.296C1369.27 706.94 1371.31 701.033 1371.27 708.833C1371.27 709.411 1372.08 709.991 1372.51 710.57C1373.35 709.914 1374.57 709.378 1374.97 708.58C1377.21 704.074 1378.75 704.343 1380.95 708.703C1381.92 710.616 1383.9 714.72 1387.38 709.565C1387.54 709.321 1392.87 703.545 1396.38 709.058C1396.62 709.435 1398.05 709.493 1398.9 709.429C1404.73 708.984 1404.06 709.011 1404.61 713.758C1406.37 728.848 1406.91 744.221 1411.13 758.892C1420.59 791.816 1413.98 823.148 1400.78 854.271C1398.46 859.733 1393.49 861.677 1387.11 862.66C1381.44 863.533 1374.91 862.171 1370.52 866.565C1361.47 864.375 1350.73 868.137 1342.94 861.74C1340.8 859.976 1340.29 860.146 1337.46 861.497C1330.64 864.763 1324.29 859.87 1317.57 859.187C1316.17 859.043 1314.85 857.473 1313.59 857.544C1302.21 858.188 1297.72 851.88 1296.67 844.899C1294.41 829.867 1292.78 814.686 1292.64 799.556C1292.4 773.593 1294.95 747.764 1305.26 722.87C1306.9 718.909 1306.75 713.977 1313.12 711.943C1315.24 711.267 1316.99 706.855 1318.4 712.248C1319.79 711.831 1321.27 711.535 1322.56 710.97C1324.25 710.231 1325.79 709.281 1327.4 708.421C1327.7 709.774 1328.24 711.124 1328.26 712.479C1328.32 715.644 1328.14 718.81 1328.05 721.978C1329.82 719.011 1331.4 715.963 1333.4 713.106C1334.81 711.1 1336.31 708.526 1338.62 707.663C1343.52 705.83 1345.5 707.498 1345.36 711.903C1345.23 716.388 1345.58 720.883 1345.72 725.373C1347.95 721.092 1350.33 716.854 1352.35 712.511C1353.31 710.464 1353.59 708.215 1354.18 706.058L1354.21 706.16ZM1174.43 490.596C1174.77 492.063 1174.86 493.603 1175.52 494.969C1175.99 495.954 1177.21 496.708 1178.1 497.565C1178.33 496.616 1179.04 495.536 1178.71 494.741C1176.54 489.618 1184.78 490.351 1185.41 486.88C1186.72 487.723 1188.64 488.354 1189.23 489.447C1191.94 494.468 1194.15 499.661 1196.77 504.715C1202.49 515.752 1207.89 526.918 1214.27 537.708C1222.15 551.031 1221.38 564.797 1219.06 578.731C1216.89 591.83 1214.39 604.894 1211.93 617.961C1211.47 620.416 1211.02 622.991 1209.74 625.204C1207.29 629.437 1205.39 634.727 1201.12 637.194C1196.89 639.643 1190.03 639.199 1184.31 639.934C1182.88 640.117 1180.49 639.485 1180.05 640.02C1175.65 645.464 1172.26 642.094 1168.51 639.502C1167.76 638.985 1165.45 638.852 1165.01 639.29C1161.24 643.02 1159.43 640.913 1156.59 638.247C1153.99 635.799 1150.24 631.977 1146.68 638.248C1146.2 639.104 1140.61 639.468 1139.82 638.613C1135.16 633.534 1127.83 634.257 1121.93 633.738C1114.78 633.109 1110.89 630.544 1109.23 625.785C1106.21 617.161 1103.01 608.453 1101.66 599.605C1096.7 567.062 1097.32 534.352 1098.55 501.652C1098.56 501.153 1098.41 500.582 1098.65 500.167C1100.2 497.559 1101.83 494.984 1103.44 492.398C1104.64 494.764 1105.93 497.104 1107 499.508C1107.4 500.42 1107.16 501.508 1107.46 502.464C1107.66 503.1 1108.3 503.644 1108.75 504.23C1109.41 503.514 1110.4 502.867 1110.66 502.067C1110.96 501.151 1110.48 500.091 1110.58 499.108C1110.68 498.161 1111.09 497.234 1111.36 496.298C1112.2 497.228 1113.38 498.066 1113.8 499.103C1114.93 501.944 1115.71 504.877 1116.72 507.754C1116.95 508.408 1117.52 508.983 1117.94 509.595C1118.53 508.884 1119.59 508.185 1119.62 507.463C1119.77 502.975 1119.68 498.48 1119.69 493.989C1119.69 491.19 1120.24 490.243 1123.83 492.375C1128.57 495.198 1132.19 498.23 1132.4 503.25C1132.46 504.73 1132.77 506.281 1133.45 507.647C1134.51 509.784 1135.97 511.791 1137.26 513.853C1137.64 511.754 1138.29 509.658 1138.34 507.554C1138.46 502.821 1138.12 498.08 1138.3 493.35C1138.39 491.191 1139.8 489.763 1142.15 492.198C1144.78 494.917 1150.64 494.887 1150.64 500.185C1150.64 503.258 1152.3 500.848 1152.99 499.601C1153.19 499.242 1155.04 499.03 1155.09 499.126C1159.02 506.124 1158.57 501.016 1159.23 498.225C1159.56 496.803 1160.63 495.503 1161.08 494.089C1161.52 492.721 1161.59 491.276 1161.81 489.864C1162.76 491.002 1163.45 492.408 1164.73 493.193C1165.8 493.853 1167.86 494.325 1168.96 493.932C1171.02 493.195 1172.7 491.772 1174.54 490.636L1174.43 490.596ZM1396.26 638.413C1395.09 638.494 1393.16 638.711 1391.22 638.735C1389.71 638.754 1388.12 638.231 1386.7 638.472C1381.44 639.368 1375.53 642.208 1371.2 641.057C1366.26 639.748 1362.04 636.889 1356.2 637.509C1355.16 637.618 1353.71 636.321 1352.75 635.459C1348.69 631.828 1344.38 629.688 1338.48 633.025C1337.55 633.554 1335.34 634.044 1335.23 633.881C1331.7 628.715 1324.87 629.675 1319.4 628.188C1318.41 627.92 1317.26 627.196 1316.49 627.407C1310.82 628.947 1309.55 625.222 1307.8 622.564C1299.28 609.57 1295.68 595.499 1294.2 580.97C1291.69 556.281 1297.84 532.334 1303.62 508.355C1304.73 503.713 1305.72 499.01 1307.5 494.524C1309.52 489.433 1311.91 488.912 1318.14 491.146C1319.14 491.506 1320.53 492.007 1321.35 491.719C1334.26 487.186 1347.41 491.108 1360.43 490.802C1365.88 490.674 1371.3 489.983 1376.75 489.621C1383.18 489.195 1389.61 488.754 1396.06 488.5C1400.13 488.339 1401.81 489.916 1402.22 493.43C1406.13 526.674 1407.35 559.969 1406.14 593.342C1405.83 602.037 1406.07 610.753 1406.34 619.453C1406.57 626.712 1402.07 632.229 1396.26 638.413ZM942.708 867.95C940.533 863.608 937.714 862.712 933.192 865.041C930.105 866.632 925.65 868.492 923.534 863.489C923.276 862.879 922.224 861.928 921.809 862.01C919.191 862.525 916.531 863.998 914.129 863.733C912.43 863.546 910.514 859.693 909.725 859.908C902.88 861.779 903.7 857.501 902.941 854.739C894.957 825.683 891.856 796.268 892.963 766.538C893.555 750.637 892.984 734.666 894.642 718.843C896.868 697.557 899.904 700.166 921.247 702.149C938.782 703.778 956.648 703.156 974.367 703.436C979.922 703.524 985.48 703.261 991.039 703.238C994.245 703.225 996.809 704.14 995.925 707.194C991.582 722.203 995.194 736.952 998.927 751.491C1005.47 776.992 1001.68 802.542 1001.07 828.089C1000.84 837.533 1000.44 846.982 999.712 856.408C999.449 859.831 998.261 863.254 997.054 866.573C995.575 870.644 991.622 872.679 986.586 872.574C980.591 872.447 974.626 871.623 968.629 871.282C966.971 871.188 965.175 871.562 963.581 872.029C960.277 872.998 957.266 874.014 954.555 870.933C953.842 870.122 951.53 870.255 949.984 869.873C947.543 869.27 945.13 868.594 942.708 867.95ZM567.621 712.615C567.954 714.082 568.047 715.622 568.703 716.988C569.177 717.973 570.4 718.727 571.287 719.584C571.517 718.635 572.23 717.556 571.896 716.761C569.731 711.638 577.967 712.37 578.601 708.899C579.908 709.743 581.828 710.373 582.418 711.466C585.125 716.487 587.335 721.68 589.952 726.734C595.674 737.771 601.075 748.937 607.456 759.727C615.336 773.05 614.564 786.816 612.25 800.75C610.073 813.849 607.575 826.913 605.12 839.98C604.659 842.435 604.208 845.01 602.927 847.224C600.474 851.456 598.576 856.746 594.307 859.213C590.073 861.663 583.217 861.218 577.493 861.953C576.065 862.136 573.674 861.504 573.24 862.039C568.838 867.483 565.449 864.113 561.699 861.522C560.95 861.005 558.641 860.871 558.198 861.309C554.43 865.04 552.614 862.932 549.78 860.266C547.18 857.819 543.43 853.996 539.872 860.267C539.385 861.123 533.795 861.487 533.011 860.632C528.35 855.553 521.02 856.277 515.12 855.757C507.966 855.128 504.08 852.563 502.416 847.804C499.402 839.181 496.193 830.472 494.845 821.624C489.885 789.081 490.509 756.372 491.733 723.671C491.751 723.172 491.594 722.601 491.84 722.186C493.386 719.578 495.02 717.003 496.625 714.418C497.827 716.783 499.121 719.123 500.188 721.528C500.592 722.439 500.343 723.528 500.643 724.484C500.844 725.119 501.486 725.663 501.933 726.249C502.598 725.533 503.585 724.886 503.845 724.086C504.143 723.17 503.668 722.11 503.77 721.128C503.868 720.18 504.279 719.254 504.55 718.318C505.384 719.247 506.569 720.085 506.984 721.122C508.121 723.964 508.898 726.896 509.903 729.773C510.133 730.427 510.712 731.003 511.131 731.614C511.714 730.904 512.779 730.205 512.804 729.482C512.957 724.994 512.871 720.5 512.878 716.008C512.882 713.21 513.425 712.262 517.013 714.394C521.762 717.218 525.373 720.249 525.588 725.269C525.652 726.749 525.96 728.301 526.635 729.666C527.692 731.803 529.159 733.81 530.451 735.872C530.828 733.773 531.475 731.678 531.528 729.574C531.646 724.84 531.309 720.099 531.491 715.369C531.573 713.21 532.988 711.782 535.338 714.217C537.964 716.936 543.829 716.906 543.829 722.204C543.829 725.277 545.483 722.867 546.18 721.62C546.38 721.261 548.222 721.05 548.276 721.145C552.202 728.143 551.755 723.035 552.413 720.244C552.751 718.822 553.822 717.522 554.272 716.108C554.707 714.74 554.774 713.295 555.001 711.883C555.944 713.021 556.634 714.427 557.913 715.213C558.988 715.873 561.047 716.344 562.146 715.951C564.206 715.214 565.888 713.791 567.726 712.655L567.621 712.615ZM789.443 860.432C788.276 860.513 786.343 860.73 784.406 860.754C782.898 860.773 781.306 860.25 779.888 860.491C774.626 861.388 768.72 864.228 764.384 863.077C759.448 861.767 755.223 858.908 749.382 859.528C748.352 859.637 746.9 858.34 745.938 857.479C741.882 853.847 737.564 851.707 731.671 855.045C730.739 855.573 728.531 856.063 728.42 855.9C724.888 850.734 718.06 851.694 712.583 850.207C711.599 849.94 710.45 849.216 709.678 849.426C704.006 850.967 702.736 847.242 700.99 844.583C692.466 831.589 688.865 817.518 687.387 802.989C684.876 778.3 691.025 754.353 696.803 730.374C697.921 725.732 698.91 721.03 700.688 716.543C702.707 711.452 705.1 710.931 711.331 713.165C712.331 713.525 713.72 714.026 714.54 713.738C727.446 709.205 740.601 713.127 753.616 712.821C759.065 712.693 764.49 712.002 769.932 711.64C776.366 711.214 782.799 710.773 789.246 710.519C793.312 710.358 794.998 711.936 795.41 715.45C799.317 748.693 800.535 781.988 799.328 815.361C799.015 824.056 799.252 832.773 799.529 841.472C799.759 848.731 795.258 854.248 789.443 860.432ZM334.895 645.931C332.721 641.589 329.901 640.693 325.379 643.022C322.293 644.613 317.838 646.473 315.721 641.47C315.464 640.86 314.411 639.909 313.996 639.991C311.379 640.506 308.719 641.979 306.316 641.714C304.618 641.527 302.702 637.673 301.912 637.889C295.068 639.76 295.888 635.481 295.129 632.72C287.144 603.664 284.044 574.249 285.15 544.519C285.742 528.618 285.172 512.647 286.829 496.823C289.055 475.538 292.092 478.147 313.435 480.13C330.97 481.759 348.835 481.136 366.555 481.417C372.11 481.505 377.668 481.242 383.227 481.219C386.433 481.206 388.996 482.121 388.113 485.175C383.769 500.184 387.381 514.933 391.115 529.472C397.656 554.972 393.864 580.522 393.255 606.07C393.03 615.514 392.624 624.963 391.9 634.389C391.637 637.812 390.448 641.235 389.242 644.554C387.762 648.625 383.81 650.66 378.773 650.555C372.779 650.428 366.813 649.604 360.817 649.263C359.158 649.169 357.362 649.543 355.769 650.01C352.464 650.979 349.454 651.995 346.743 648.914C346.029 648.103 343.718 648.236 342.172 647.854C339.731 647.25 337.317 646.575 334.895 645.931ZM288.931 820.919C289.854 821.216 290.346 821.374 290.839 821.534C290.98 820.405 291.171 819.275 291.199 818.144C291.201 818.015 290.279 817.874 289.788 817.738C289.497 818.817 289.208 819.898 288.931 820.919ZM284.934 784.941C285.22 767.801 286.213 750.665 293.694 734.422C296.274 728.823 301.336 723.962 305.262 718.763C305.832 719.074 306.827 719.336 306.893 719.703C307.154 721.168 307.031 722.675 307.24 724.148C307.326 724.741 307.901 725.288 308.254 725.856C308.662 725.527 309.099 725.216 309.463 724.859C309.652 724.675 309.688 724.397 309.837 724.182C311.571 721.666 313.706 716.89 314.984 717.034C320.669 717.67 317.638 722.143 318.801 724.932C319.032 725.488 319.948 726.248 320.516 726.23C321.263 726.208 322.285 725.64 322.655 725.08C323.95 723.116 324.477 720.611 326.328 719.157C328.152 717.723 331.23 717.315 333.758 716.457C334.167 717.909 334.725 719.345 334.952 720.813C335.447 724.005 335.775 727.213 336.171 730.414C337.903 727.598 339.658 724.79 341.348 721.957C341.743 721.293 341.956 720.552 342.184 719.832C343.928 714.31 346.008 719.408 347.887 719.709C347.262 720.004 346.686 720.303 346.107 720.6C346.287 720.6 346.531 720.659 346.636 720.588C347.035 720.321 347.388 720.011 347.757 719.718C349.921 720.217 353.795 721.427 353.995 721.115C358.179 714.614 358.302 718.81 358.961 722.188C358.983 722.312 360.967 722.482 361.67 722.143C362.312 721.832 362.392 720.832 362.831 720.182C366.41 714.866 366.417 714.869 371.437 719.734C370.833 720.059 370.266 720.385 369.702 720.712C369.899 720.732 370.197 720.826 370.275 720.758C370.638 720.437 370.94 720.073 371.264 719.725C372.15 717.722 372.367 715.541 375.512 718.929C377.462 721.027 381.602 725.85 384.129 718.678C384.291 718.214 385.603 717.539 386.021 717.676C389.636 718.857 393.452 719.876 396.589 721.65C397.936 722.412 397.865 724.834 398.356 726.517C402.298 740.006 406.662 753.427 410.006 767.01C412.792 778.322 414.383 789.562 413.759 801.455C413 815.877 409.123 829.398 404.855 843.075C403.503 847.41 400.803 851.516 399.873 855.886C397.936 864.992 390.779 868.451 380.24 869.073C377.891 869.213 375.556 869.743 373.274 870.26C365.726 871.97 358.387 873.141 350.382 871.156C345.164 869.863 339.133 870.789 333.767 869.735C326.994 868.406 320.675 865.556 313.894 864.28C299.889 861.642 292.987 854.11 289.355 843.654C285.19 831.665 286.128 819.533 287.151 807.373C288.259 806.826 290.361 806.219 290.316 805.746C289.921 801.664 289.141 797.607 288.474 793.544L288.47 793.879C288.472 791.655 288.476 789.432 288.478 787.208L288.484 787.507C289.388 780.978 290.333 774.453 291.148 767.917C291.253 767.083 290.678 766.195 290.418 765.33C289.83 766.077 288.896 766.773 288.709 767.58C287.365 773.355 286.173 779.151 284.934 784.941ZM131.586 706.16C134.162 707.362 136.594 708.934 139.369 709.618C140.868 709.989 143.346 709.213 144.68 708.296C146.651 706.94 148.692 701.033 148.652 708.833C148.65 709.411 149.458 709.991 149.89 710.57C150.728 709.914 151.949 709.378 152.346 708.58C154.587 704.074 156.125 704.343 158.329 708.703C159.299 710.616 161.275 714.72 164.754 709.565C164.919 709.321 170.248 703.545 173.761 709.058C174 709.435 175.43 709.493 176.275 709.429C182.112 708.984 181.436 709.011 181.988 713.758C183.746 728.848 184.289 744.221 188.504 758.892C197.964 791.816 191.36 823.148 178.153 854.271C175.834 859.733 170.871 861.677 164.486 862.66C158.821 863.533 152.286 862.171 147.899 866.565C138.844 864.375 128.111 868.137 120.321 861.74C118.175 859.976 117.663 860.146 114.841 861.497C108.021 864.763 101.667 859.87 94.9425 859.187C93.5452 859.043 92.2318 857.473 90.9669 857.544C79.5858 858.188 75.0981 851.88 74.0486 844.899C71.7894 829.867 70.1561 814.686 70.0152 799.556C69.7745 773.593 72.3276 747.764 82.6407 722.87C84.2806 718.909 84.1239 713.977 90.4968 711.943C92.6143 711.267 94.3689 706.855 95.7783 712.248C97.1719 711.831 98.6476 711.535 99.9414 710.97C101.629 710.231 103.17 709.281 104.775 708.421C105.079 709.774 105.615 711.124 105.641 712.479C105.699 715.644 105.515 718.81 105.429 721.978C107.193 719.011 108.778 715.963 110.782 713.106C112.188 711.1 113.688 708.526 115.994 707.663C120.895 705.83 122.875 707.498 122.741 711.903C122.604 716.388 122.961 720.883 123.101 725.373C125.331 721.092 127.707 716.854 129.731 712.511C130.684 710.464 130.967 708.215 131.553 706.058L131.586 706.16ZM172.617 638.746C171.45 638.827 169.517 639.045 167.581 639.069C166.072 639.087 164.481 638.563 163.063 638.805C157.802 639.703 151.897 642.549 147.562 641.396C142.627 640.083 138.402 637.219 132.563 637.84C131.532 637.95 130.081 636.65 129.119 635.787C125.063 632.148 120.746 630.004 114.854 633.348C113.922 633.877 111.715 634.369 111.604 634.205C108.072 629.029 101.245 629.991 95.7692 628.501C94.7849 628.233 93.6368 627.507 92.8645 627.718C87.1931 629.262 85.9237 625.529 84.1783 622.866C75.6549 609.846 72.0549 595.746 70.5771 581.188C68.0668 556.449 74.2142 532.455 79.9921 508.428C81.1097 503.777 82.0986 499.065 83.8764 494.569C85.895 489.468 88.2876 488.946 94.5173 491.185C95.5174 491.545 96.9063 492.047 97.7257 491.759C110.63 487.216 123.783 491.146 136.796 490.84C142.243 490.712 147.667 490.019 153.109 489.656C159.542 489.229 165.974 488.788 172.42 488.533C176.486 488.372 178.171 489.952 178.583 493.474C182.489 526.784 183.707 560.145 182.501 593.585C182.188 602.298 182.425 611.031 182.701 619.748C182.931 627.021 178.431 632.55 172.617 638.746ZM1163.36 258.246C1165.66 257.569 1169.48 257.316 1169.98 256.144C1172.61 249.981 1180.84 255.949 1183.94 251.59C1184.54 252.736 1185.18 253.875 1185.74 255.033C1186.07 255.699 1186.29 256.398 1186.56 257.083C1187.26 256.498 1187.87 255.813 1188.68 255.348C1191.69 253.618 1194.73 251.927 1197.89 250.383C1198.03 250.314 1200.05 251.834 1200.05 252.611C1200 265.787 1206.53 277.755 1210.03 290.281C1213.65 303.244 1215.02 316.786 1215.47 330.116C1216.22 352.72 1214.73 375.312 1208.58 397.511C1207.65 400.865 1205.99 404.091 1204.55 407.344C1202.33 412.342 1198.58 414.789 1191.3 414.115C1186.51 413.672 1181.47 415.313 1176.5 415.589C1169.43 415.98 1162.33 416.018 1155.24 416.091C1154.26 416.101 1152.88 415.674 1152.34 415.07C1149.23 411.578 1146.55 408.718 1142.17 414.429C1141.68 415.055 1135.59 413.14 1132.34 411.972C1131.34 411.613 1131.14 409.815 1130.58 408.676C1126.81 411.365 1123.35 407.913 1120.3 408.229C1114.69 408.808 1111.78 408.971 1109.04 405.159C1107.21 402.603 1105.77 399.793 1104.69 396.966C1091.61 362.849 1089.17 328.233 1097.6 293.164C1100.06 282.924 1102.7 272.709 1105.54 262.536C1106.24 260.042 1105.86 256.531 1111.87 256.994C1113.61 257.128 1115.46 254.479 1116.14 258.038C1116.22 258.481 1118.14 259.226 1118.67 259C1122.52 257.361 1124.27 257.884 1123.9 261.652C1123.84 262.313 1125.01 263.053 1125.62 263.757C1126.26 263.258 1127.05 262.834 1127.51 262.243C1128.33 261.206 1128.61 259.595 1129.73 259.059C1132.97 257.507 1136.52 256.37 1139.96 255.07C1140.49 257.346 1141.12 259.612 1141.54 261.901C1142.11 264.976 1142.52 268.068 1143 271.153C1144.33 268.297 1145.88 265.493 1146.95 262.574C1148.31 258.837 1149.18 255.662 1155.16 259.715C1156.51 260.631 1160.73 258.802 1163.63 258.236L1163.36 258.246ZM1354.21 261.317C1356.79 262.519 1359.22 264.092 1361.99 264.775C1363.49 265.146 1365.97 264.371 1367.3 263.453C1369.27 262.097 1371.31 256.19 1371.27 263.99C1371.27 264.568 1372.08 265.149 1372.51 265.728C1373.35 265.071 1374.57 264.535 1374.97 263.737C1377.21 259.231 1378.75 259.501 1380.95 263.86C1381.92 265.773 1383.9 269.877 1387.38 264.722C1387.54 264.478 1392.87 258.702 1396.38 264.215C1396.62 264.593 1398.05 264.65 1398.9 264.586C1404.73 264.141 1404.06 264.169 1404.61 268.915C1406.37 284.005 1406.91 299.378 1411.13 314.049C1420.59 346.973 1413.98 378.305 1400.78 409.428C1398.46 414.89 1393.49 416.835 1387.11 417.818C1381.44 418.69 1374.91 417.328 1370.52 421.722C1361.47 419.532 1350.73 423.294 1342.94 416.897C1340.8 415.134 1340.29 415.303 1337.46 416.654C1330.64 419.921 1324.29 415.027 1317.57 414.344C1316.17 414.201 1314.85 412.631 1313.59 412.702C1302.21 413.346 1297.72 407.037 1296.67 400.056C1294.41 385.024 1292.78 369.843 1292.64 354.713C1292.4 328.75 1294.95 302.922 1305.26 278.027C1306.9 274.067 1306.75 269.134 1313.12 267.1C1315.24 266.424 1316.99 262.013 1318.4 267.405C1319.79 266.988 1321.27 266.693 1322.56 266.127C1324.25 265.389 1325.79 264.439 1327.4 263.578C1327.7 264.932 1328.24 266.281 1328.26 267.636C1328.32 270.801 1328.14 273.968 1328.05 277.135C1329.82 274.168 1331.4 271.121 1333.4 268.263C1334.81 266.257 1336.31 263.683 1338.62 262.821C1343.52 260.987 1345.5 262.655 1345.36 267.061C1345.23 271.545 1345.58 276.04 1345.72 280.53C1347.95 276.249 1350.33 272.012 1352.35 267.668C1353.31 265.621 1353.59 263.373 1354.18 261.215L1354.21 261.317ZM1174.43 45.7536C1174.77 47.2207 1174.86 48.7605 1175.52 50.1265C1175.99 51.1111 1177.21 51.8649 1178.1 52.7221C1178.33 51.7735 1179.04 50.6937 1178.71 49.8987C1176.54 44.7758 1184.78 45.5086 1185.41 42.0371C1186.72 42.8808 1188.64 43.5109 1189.23 44.6042C1191.94 49.6252 1194.15 54.8186 1196.77 59.8719C1202.49 70.9091 1207.89 82.0752 1214.27 92.8651C1222.15 106.188 1221.38 119.954 1219.06 133.889C1216.89 146.987 1214.39 160.051 1211.93 173.118C1211.47 175.574 1211.02 178.148 1209.74 180.362C1207.29 184.594 1205.39 189.885 1201.12 192.351C1196.89 194.801 1190.03 194.356 1184.31 195.091C1182.88 195.274 1180.49 194.643 1180.05 195.178C1175.65 200.621 1172.26 197.251 1168.51 194.66C1167.76 194.143 1165.45 194.009 1165.01 194.447C1161.24 198.178 1159.43 196.07 1156.59 193.404C1153.99 190.957 1150.24 187.134 1146.68 193.405C1146.2 194.261 1140.61 194.625 1139.82 193.77C1135.16 188.691 1127.83 189.415 1121.93 188.895C1114.78 188.266 1110.89 185.701 1109.23 180.942C1106.21 172.319 1103.01 163.61 1101.66 154.763C1096.7 122.219 1097.32 89.5097 1098.55 56.8095C1098.56 56.3105 1098.41 55.7395 1098.65 55.3244C1100.2 52.7161 1101.83 50.1415 1103.44 47.5557C1104.64 49.9212 1105.93 52.2613 1107 54.6658C1107.4 55.5769 1107.16 56.6657 1107.46 57.6218C1107.66 58.2572 1108.3 58.8012 1108.75 59.3871C1109.41 58.6715 1110.4 58.0241 1110.66 57.2246C1110.96 56.3082 1110.48 55.248 1110.58 54.2657C1110.68 53.3185 1111.09 52.3917 1111.36 51.4558C1112.2 52.3849 1113.38 53.2234 1113.8 54.2604C1114.93 57.1018 1115.71 60.0345 1116.72 62.9111C1116.95 63.5652 1117.52 64.1407 1117.94 64.7521C1118.53 64.0418 1119.59 63.3427 1119.62 62.6204C1119.77 58.132 1119.68 53.6377 1119.69 49.1464C1119.69 46.3478 1120.24 45.3999 1123.83 47.5324C1128.57 50.3558 1132.19 53.3875 1132.4 58.407C1132.46 59.8869 1132.77 61.4387 1133.45 62.8039C1134.51 64.9409 1135.97 66.9483 1137.26 69.0104C1137.64 66.9108 1138.29 64.8166 1138.34 62.7118C1138.46 57.9792 1138.12 53.2369 1138.3 48.5073C1138.39 46.3485 1139.8 44.9204 1142.15 47.3549C1144.78 50.0741 1150.64 50.0441 1150.64 55.3424C1150.64 58.4153 1152.3 56.0055 1152.99 54.7579C1153.19 54.399 1155.04 54.1877 1155.09 54.2836C1159.02 61.2814 1158.57 56.1734 1159.23 53.3822C1159.56 51.9601 1160.63 50.66 1161.08 49.2468C1161.52 47.8779 1161.59 46.4332 1161.81 45.0215C1162.76 46.159 1163.45 47.5654 1164.73 48.3507C1165.8 49.0108 1167.86 49.4821 1168.96 49.0895C1171.02 48.3522 1172.7 46.9293 1174.54 45.7933L1174.43 45.7536ZM1396.26 193.571C1395.09 193.651 1393.16 193.868 1391.22 193.892C1389.71 193.911 1388.12 193.388 1386.7 193.63C1381.44 194.526 1375.53 197.366 1371.2 196.215C1366.26 194.905 1362.04 192.046 1356.2 192.666C1355.16 192.775 1353.71 191.478 1352.75 190.617C1348.69 186.985 1344.38 184.845 1338.48 188.183C1337.55 188.711 1335.34 189.202 1335.23 189.039C1331.7 183.872 1324.87 184.833 1319.4 183.346C1318.41 183.078 1317.26 182.354 1316.49 182.564C1310.82 184.105 1309.55 180.38 1307.8 177.721C1299.28 164.727 1295.68 150.656 1294.2 136.127C1291.69 111.438 1297.84 87.4912 1303.62 63.5123C1304.73 58.8703 1305.72 54.1677 1307.5 49.6813C1309.52 44.5905 1311.91 44.0692 1318.14 46.3034C1319.14 46.6632 1320.53 47.1644 1321.35 46.8764C1334.26 42.3428 1347.41 46.2653 1360.43 45.9593C1365.88 45.8314 1371.3 45.1403 1376.75 44.7783C1383.18 44.3519 1389.61 43.9114 1396.06 43.657C1400.13 43.4962 1401.81 45.0737 1402.22 48.5878C1406.13 81.8312 1407.35 115.126 1406.14 148.499C1405.83 157.195 1406.07 165.911 1406.34 174.611C1406.57 181.869 1402.07 187.386 1396.26 193.571ZM556.55 480.266C558.844 479.588 562.671 479.336 563.171 478.163C565.8 472 574.024 477.968 577.122 473.609C577.728 474.755 578.364 475.894 578.932 477.052C579.26 477.718 579.481 478.418 579.748 479.102C580.451 478.518 581.06 477.832 581.868 477.367C584.875 475.637 587.921 473.946 591.076 472.403C591.217 472.333 593.241 473.854 593.237 474.63C593.185 487.806 599.715 499.774 603.214 512.3C606.837 525.263 608.206 538.806 608.654 552.135C609.408 574.74 607.919 597.331 601.769 619.531C600.84 622.884 599.175 626.111 597.732 629.363C595.518 634.361 591.766 636.808 584.49 636.134C579.693 635.691 574.654 637.332 569.686 637.608C562.617 638 555.515 638.037 548.425 638.11C547.445 638.12 546.069 637.693 545.53 637.089C542.421 633.597 539.742 630.737 535.353 636.449C534.872 637.074 528.778 635.159 525.528 633.992C524.53 633.633 524.33 631.835 523.765 630.696C519.997 633.384 516.54 629.932 513.491 630.248C507.877 630.827 504.966 630.99 502.228 627.178C500.393 624.622 498.958 621.812 497.874 618.985C484.801 584.868 482.359 550.252 490.786 515.183C493.248 504.944 495.883 494.728 498.732 484.555C499.43 482.061 499.05 478.55 505.057 479.013C506.801 479.148 508.642 476.498 509.323 480.057C509.406 480.5 511.332 481.245 511.859 481.019C515.704 479.38 517.457 479.904 517.091 483.671C517.028 484.333 518.202 485.072 518.805 485.776C519.447 485.277 520.235 484.853 520.701 484.262C521.521 483.225 521.796 481.614 522.914 481.078C526.161 479.526 529.712 478.389 533.143 477.089C533.681 479.365 534.307 481.631 534.731 483.921C535.297 486.995 535.707 490.087 536.183 493.172C537.518 490.316 539.067 487.512 540.135 484.593C541.502 480.856 542.37 477.682 548.346 481.734C549.697 482.65 553.915 480.821 556.814 480.255L556.55 480.266ZM942.708 423.107C940.533 418.765 937.714 417.869 933.192 420.198C930.105 421.789 925.65 423.649 923.534 418.646C923.276 418.036 922.224 417.085 921.809 417.167C919.191 417.683 916.531 419.156 914.129 418.89C912.43 418.703 910.514 414.85 909.725 415.065C902.88 416.937 903.7 412.658 902.941 409.897C894.957 380.84 891.856 351.425 892.963 321.696C893.555 305.794 892.984 289.824 894.642 274C896.868 252.714 899.904 255.323 921.247 257.306C938.782 258.935 956.648 258.313 974.367 258.593C979.922 258.681 985.48 258.418 991.039 258.396C994.245 258.382 996.809 259.297 995.925 262.351C991.582 277.36 995.194 292.11 998.927 306.648C1005.47 332.149 1001.68 357.699 1001.07 383.247C1000.84 392.691 1000.44 402.139 999.712 411.565C999.449 414.988 998.261 418.412 997.054 421.731C995.575 425.801 991.622 427.836 986.586 427.731C980.591 427.605 974.626 426.78 968.629 426.44C966.971 426.346 965.175 426.72 963.581 427.187C960.277 428.155 957.266 429.172 954.555 426.09C953.842 425.279 951.53 425.413 949.984 425.03C947.543 424.427 945.13 423.752 942.708 423.107ZM895.744 598.095C896.666 598.392 897.158 598.55 897.651 598.709C897.793 597.581 897.984 596.451 898.012 595.32C898.014 595.191 897.092 595.05 896.601 594.914C896.309 595.993 896.02 597.074 895.744 598.095ZM891.746 562.117C892.033 544.977 893.026 527.841 900.507 511.599C903.087 506 908.149 501.138 912.074 495.94C912.645 496.25 913.64 496.512 913.705 496.879C913.966 498.345 913.844 499.851 914.053 501.324C914.139 501.917 914.714 502.465 915.067 503.032C915.475 502.703 915.912 502.393 916.276 502.035C916.465 501.851 916.501 501.573 916.649 501.358C918.384 498.843 920.519 494.066 921.797 494.21C927.482 494.847 924.451 499.319 925.614 502.109C925.845 502.664 926.76 503.425 927.329 503.407C928.076 503.384 929.098 502.817 929.468 502.257C930.763 500.293 931.29 497.787 933.141 496.333C934.964 494.9 938.043 494.491 940.571 493.633C940.98 495.085 941.537 496.521 941.765 497.99C942.26 501.182 942.588 504.39 942.984 507.591C944.715 504.774 946.47 501.967 948.161 499.134C948.556 498.47 948.769 497.729 948.997 497.009C950.741 491.487 952.821 496.585 954.7 496.885C954.075 497.181 953.498 497.479 952.92 497.776C953.099 497.776 953.344 497.836 953.449 497.765C953.848 497.498 954.201 497.187 954.57 496.894C956.734 497.394 960.608 498.604 960.808 498.291C964.991 491.79 965.115 495.986 965.774 499.365C965.796 499.488 967.78 499.659 968.482 499.319C969.125 499.009 969.205 498.008 969.644 497.359C973.222 492.043 973.23 492.046 978.249 496.911C977.645 497.235 977.079 497.561 976.515 497.889C976.712 497.908 977.01 498.002 977.088 497.934C977.451 497.614 977.753 497.25 978.077 496.901C978.963 494.898 979.179 492.717 982.325 496.106C984.275 498.204 988.414 503.027 990.942 495.854C991.104 495.39 992.416 494.716 992.834 494.853C996.449 496.034 1000.27 497.052 1003.4 498.826C1004.75 499.588 1004.68 502.01 1005.17 503.694C1009.11 517.182 1013.47 530.603 1016.82 544.187C1019.61 555.498 1021.2 566.738 1020.57 578.631C1019.81 593.053 1015.94 606.574 1011.67 620.251C1010.32 624.586 1007.62 628.692 1006.69 633.062C1004.75 642.168 997.591 645.628 987.053 646.25C984.704 646.39 982.369 646.919 980.086 647.436C972.539 649.146 965.2 650.317 957.195 648.332C951.976 647.039 945.946 647.966 940.579 646.912C933.807 645.582 927.489 642.733 920.706 641.456C906.702 638.818 899.8 631.285 896.168 620.83C892.003 608.84 892.94 596.709 893.964 584.549C895.072 584.002 897.174 583.395 897.129 582.922C896.733 578.84 895.953 574.783 895.287 570.72L895.283 571.056C895.285 568.831 895.289 566.608 895.291 564.384L895.297 564.683C896.2 558.155 897.145 551.63 897.961 545.094C898.066 544.259 897.491 543.371 897.231 542.506C896.643 543.254 895.709 543.95 895.522 544.756C894.178 550.531 892.986 556.327 891.746 562.117ZM747.396 484.14C749.972 485.343 752.404 486.915 755.179 487.599C756.678 487.97 759.156 487.194 760.49 486.277C762.461 484.921 764.502 479.014 764.462 486.813C764.46 487.392 765.268 487.972 765.7 488.551C766.538 487.894 767.759 487.359 768.156 486.56C770.397 482.055 771.935 482.324 774.139 486.684C775.109 488.597 777.085 492.701 780.564 487.546C780.729 487.302 786.058 481.526 789.571 487.039C789.81 487.416 791.24 487.474 792.085 487.41C797.922 486.964 797.246 486.992 797.798 491.739C799.556 506.828 800.099 522.201 804.314 536.873C813.774 569.796 807.17 601.128 793.963 632.251C791.644 637.713 786.681 639.658 780.296 640.641C774.631 641.513 768.096 640.151 763.709 644.546C754.654 642.356 743.921 646.118 736.131 639.72C733.985 637.956 733.473 638.126 730.651 639.477C723.831 642.744 717.477 637.85 710.753 637.167C709.355 637.024 708.042 635.453 706.777 635.524C695.396 636.168 690.908 629.86 689.859 622.879C687.599 607.847 685.966 592.666 685.825 577.536C685.585 551.573 688.138 525.745 698.451 500.85C700.091 496.89 699.934 491.958 706.307 489.924C708.424 489.248 710.179 484.836 711.588 490.228C712.982 489.812 714.458 489.516 715.751 488.951C717.439 488.212 718.98 487.262 720.585 486.402C720.889 487.755 721.425 489.105 721.451 490.459C721.509 493.625 721.325 496.791 721.239 499.959C723.003 496.992 724.588 493.944 726.592 491.086C727.998 489.081 729.498 486.507 731.804 485.644C736.705 483.811 738.685 485.479 738.551 489.884C738.414 494.369 738.771 498.863 738.911 503.353C741.141 499.073 743.517 494.835 745.541 490.492C746.494 488.445 746.776 486.196 747.363 484.039L747.396 484.14ZM567.621 267.773C567.954 269.239 568.047 270.78 568.703 272.146C569.177 273.13 570.4 273.884 571.287 274.741C571.517 273.793 572.23 272.713 571.896 271.918C569.731 266.795 577.967 267.528 578.601 264.056C579.908 264.9 581.828 265.53 582.418 266.623C585.125 271.644 587.335 276.838 589.952 281.891C595.674 292.928 601.075 304.094 607.456 314.884C615.336 328.208 614.564 341.973 612.25 355.908C610.073 369.006 607.575 382.07 605.12 395.137C604.659 397.593 604.208 400.167 602.927 402.381C600.474 406.614 598.576 411.904 594.307 414.37C590.073 416.82 583.217 416.375 577.493 417.111C576.065 417.293 573.674 416.662 573.24 417.197C568.838 422.64 565.449 419.27 561.699 416.679C560.95 416.162 558.641 416.029 558.198 416.466C554.43 420.197 552.614 418.089 549.78 415.423C547.18 412.976 543.43 409.153 539.872 415.425C539.385 416.28 533.795 416.644 533.011 415.79C528.35 410.71 521.02 411.434 515.12 410.915C507.966 410.285 504.08 407.72 502.416 402.962C499.402 394.338 496.193 385.629 494.845 376.782C489.885 344.238 490.509 311.529 491.733 278.829C491.751 278.33 491.594 277.759 491.84 277.344C493.386 274.735 495.02 272.161 496.625 269.575C497.827 271.94 499.121 274.28 500.188 276.685C500.592 277.596 500.343 278.685 500.643 279.641C500.844 280.276 501.486 280.82 501.933 281.406C502.598 280.691 503.585 280.043 503.845 279.244C504.143 278.327 503.668 277.267 503.77 276.285C503.868 275.338 504.279 274.411 504.55 273.475C505.384 274.404 506.569 275.243 506.984 276.28C508.121 279.121 508.898 282.054 509.903 284.93C510.133 285.584 510.712 286.16 511.131 286.771C511.714 286.061 512.779 285.362 512.804 284.639C512.957 280.151 512.871 275.657 512.878 271.166C512.882 268.367 513.425 267.419 517.013 269.552C521.762 272.375 525.373 275.407 525.588 280.426C525.652 281.906 525.96 283.458 526.635 284.823C527.692 286.96 529.159 288.967 530.451 291.03C530.828 288.93 531.475 286.835 531.528 284.731C531.646 279.998 531.309 275.256 531.491 270.526C531.573 268.368 532.988 266.94 535.338 269.374C537.964 272.093 543.829 272.063 543.829 277.362C543.829 280.434 545.483 278.025 546.18 276.777C546.38 276.418 548.222 276.207 548.276 276.303C552.202 283.3 551.755 278.193 552.413 275.401C552.751 273.979 553.822 272.679 554.272 271.265C554.707 269.897 554.774 268.452 555.001 267.041C555.944 268.178 556.634 269.585 557.913 270.37C558.988 271.03 561.047 271.501 562.146 271.109C564.206 270.371 565.888 268.948 567.726 267.812L567.621 267.773ZM789.443 415.59C788.276 415.67 786.343 415.887 784.406 415.911C782.898 415.93 781.306 415.407 779.888 415.649C774.626 416.545 768.72 419.385 764.384 418.234C759.448 416.924 755.223 414.065 749.382 414.685C748.352 414.795 746.9 413.498 745.938 412.636C741.882 409.004 737.564 406.864 731.671 410.202C730.739 410.73 728.531 411.221 728.42 411.058C724.888 405.891 718.06 406.852 712.583 405.365C711.599 405.097 710.45 404.373 709.678 404.583C704.006 406.124 702.736 402.399 700.99 399.741C692.466 386.747 688.865 372.675 687.387 358.147C684.876 333.457 691.025 309.51 696.803 285.531C697.921 280.889 698.91 276.187 700.688 271.7C702.707 266.61 705.1 266.088 711.331 268.323C712.331 268.682 713.72 269.183 714.54 268.896C727.446 264.362 740.601 268.284 753.616 267.978C759.065 267.851 764.49 267.159 769.932 266.797C776.366 266.371 782.799 265.93 789.246 265.676C793.312 265.515 794.998 267.093 795.41 270.607C799.317 303.85 800.535 337.145 799.328 370.518C799.015 379.214 799.252 387.93 799.529 396.63C799.759 403.888 795.258 409.405 789.443 415.59ZM334.895 201.088C332.721 196.746 329.901 195.85 325.379 198.179C322.293 199.77 317.838 201.63 315.721 196.627C315.464 196.017 314.411 195.066 313.996 195.148C311.379 195.664 308.719 197.136 306.316 196.871C304.618 196.684 302.702 192.831 301.912 193.046C295.068 194.918 295.888 190.639 295.129 187.878C287.144 158.821 284.044 129.406 285.15 99.6766C285.742 83.7753 285.172 67.8045 286.829 51.9808C289.055 30.6953 292.092 33.3041 313.435 35.287C330.97 36.9159 348.835 36.2938 366.555 36.5738C372.11 36.662 377.668 36.3998 383.227 36.3767C386.433 36.3632 388.996 37.2781 388.113 40.332C383.769 55.3409 387.381 70.0906 391.115 84.6289C397.656 110.13 393.864 135.68 393.255 161.227C393.03 170.671 392.624 180.12 391.9 189.546C391.637 192.969 390.448 196.393 389.242 199.712C387.762 203.782 383.81 205.817 378.773 205.712C372.779 205.586 366.813 204.761 360.817 204.421C359.158 204.326 357.362 204.701 355.769 205.167C352.464 206.136 349.454 207.153 346.743 204.071C346.029 203.26 343.718 203.394 342.172 203.011C339.731 202.408 337.317 201.733 334.895 201.088ZM288.931 376.076C289.854 376.373 290.346 376.532 290.839 376.691C290.98 375.562 291.171 374.432 291.199 373.301C291.201 373.172 290.279 373.031 289.788 372.895C289.497 373.975 289.208 375.055 288.931 376.076ZM284.934 340.098C285.22 322.958 286.213 305.822 293.694 289.58C296.274 283.98 301.336 279.119 305.262 273.921C305.832 274.231 306.827 274.493 306.893 274.86C307.154 276.326 307.031 277.832 307.24 279.305C307.326 279.898 307.901 280.445 308.254 281.013C308.662 280.684 309.099 280.374 309.463 280.016C309.652 279.832 309.688 279.554 309.837 279.339C311.571 276.824 313.706 272.047 314.984 272.191C320.669 272.827 317.638 277.3 318.801 280.09C319.032 280.645 319.948 281.405 320.516 281.388C321.263 281.365 322.285 280.798 322.655 280.238C323.95 278.273 324.477 275.768 326.328 274.314C328.152 272.881 331.23 272.472 333.758 271.614C334.167 273.066 334.725 274.502 334.952 275.971C335.447 279.162 335.775 282.371 336.171 285.571C337.903 282.755 339.658 279.947 341.348 277.115C341.743 276.451 341.956 275.71 342.184 274.99C343.928 269.467 346.008 274.566 347.887 274.866C347.262 275.162 346.686 275.46 346.107 275.757C346.287 275.757 346.531 275.817 346.636 275.746C347.035 275.479 347.388 275.168 347.757 274.875C349.921 275.375 353.795 276.584 353.995 276.272C358.179 269.771 358.302 273.967 358.961 277.346C358.983 277.469 360.967 277.639 361.67 277.3C362.312 276.99 362.392 275.989 362.831 275.34C366.41 270.024 366.417 270.027 371.437 274.892C370.833 275.216 370.266 275.542 369.702 275.87C369.899 275.889 370.197 275.983 370.275 275.915C370.638 275.595 370.94 275.23 371.264 274.882C372.15 272.879 372.367 270.698 375.512 274.087C377.462 276.184 381.602 281.008 384.129 273.835C384.291 273.371 385.603 272.697 386.021 272.833C389.636 274.015 393.452 275.033 396.589 276.807C397.936 277.569 397.865 279.991 398.356 281.675C402.298 295.163 406.662 308.584 410.006 322.168C412.792 333.479 414.383 344.72 413.759 356.612C413 371.035 409.123 384.556 404.855 398.233C403.503 402.568 400.803 406.673 399.873 411.043C397.936 420.149 390.779 423.609 380.24 424.231C377.891 424.371 375.556 424.9 373.274 425.417C365.726 427.127 358.387 428.298 350.382 426.313C345.164 425.02 339.133 425.947 333.767 424.892C326.994 423.563 320.675 420.714 313.894 419.437C299.889 416.8 292.987 409.267 289.355 398.811C285.19 386.822 286.128 374.69 287.151 362.53C288.259 361.983 290.361 361.376 290.316 360.903C289.921 356.822 289.141 352.765 288.474 348.701L288.47 349.037C288.472 346.812 288.476 344.59 288.478 342.365L288.484 342.664C289.388 336.136 290.333 329.611 291.148 323.075C291.253 322.24 290.678 321.352 290.418 320.487C289.83 321.235 288.896 321.931 288.709 322.737C287.365 328.512 286.173 334.308 284.934 340.098ZM131.586 261.317C134.162 262.519 136.594 264.092 139.369 264.775C140.868 265.146 143.346 264.371 144.68 263.453C146.651 262.097 148.692 256.19 148.652 263.99C148.65 264.568 149.458 265.149 149.89 265.728C150.728 265.071 151.949 264.535 152.346 263.737C154.587 259.231 156.125 259.501 158.329 263.86C159.299 265.773 161.275 269.877 164.754 264.722C164.919 264.478 170.248 258.702 173.761 264.215C174 264.593 175.43 264.65 176.275 264.586C182.112 264.141 181.436 264.169 181.988 268.915C183.746 284.005 184.289 299.378 188.504 314.049C197.964 346.973 191.36 378.305 178.153 409.428C175.834 414.89 170.871 416.835 164.486 417.818C158.821 418.69 152.286 417.328 147.899 421.722C138.844 419.532 128.111 423.294 120.321 416.897C118.175 415.134 117.663 415.303 114.841 416.654C108.021 419.921 101.667 415.027 94.9425 414.344C93.5452 414.201 92.2318 412.631 90.9669 412.702C79.5858 413.346 75.0981 407.037 74.0486 400.056C71.7894 385.024 70.1561 369.843 70.0152 354.713C69.7745 328.75 72.3276 302.922 82.6407 278.027C84.2806 274.067 84.1239 269.134 90.4968 267.1C92.6143 266.424 94.3689 262.013 95.7783 267.405C97.1719 266.988 98.6476 266.693 99.9414 266.127C101.629 265.389 103.17 264.439 104.775 263.578C105.079 264.932 105.615 266.281 105.641 267.636C105.699 270.801 105.515 273.968 105.429 277.135C107.193 274.168 108.778 271.121 110.782 268.263C112.188 266.257 113.688 263.683 115.994 262.821C120.895 260.987 122.875 262.655 122.741 267.061C122.604 271.545 122.961 276.04 123.101 280.53C125.331 276.249 127.707 272.012 129.731 267.668C130.684 265.621 130.967 263.373 131.553 261.215L131.586 261.317ZM172.617 193.052C171.45 193.132 169.517 193.349 167.581 193.373C166.072 193.391 164.481 192.87 163.063 193.111C157.802 194.004 151.897 196.836 147.562 195.688C142.627 194.382 138.402 191.532 132.563 192.15C131.532 192.259 130.081 190.966 129.119 190.106C125.063 186.485 120.746 184.352 114.854 187.68C113.922 188.206 111.715 188.695 111.604 188.533C108.072 183.381 101.245 184.339 95.7692 182.856C94.7849 182.589 93.6368 181.867 92.8645 182.077C87.1931 183.613 85.9237 179.899 84.1783 177.248C75.6549 164.291 72.0549 150.261 70.5771 135.773C68.0668 111.155 74.2142 87.2764 79.9921 63.3661C81.1097 58.7374 82.0986 54.0483 83.8764 49.5747C85.895 44.4985 88.2876 43.9787 94.5173 46.2065C95.5174 46.5653 96.9063 47.065 97.7257 46.7778C110.63 42.2573 123.783 46.1685 136.796 45.8634C142.243 45.7359 147.667 45.0467 153.109 44.6857C159.542 44.2606 165.974 43.8213 172.42 43.5677C176.486 43.4074 178.171 44.9803 178.583 48.4843C182.489 81.6326 183.707 114.832 182.501 148.11C182.188 156.78 182.425 165.471 182.701 174.146C182.931 181.384 178.431 186.885 172.617 193.052ZM557.151 35.8688C559.458 35.1908 563.307 34.9384 563.811 33.7653C566.455 27.5998 574.727 33.5704 577.843 29.2105C578.453 30.3559 579.092 31.4954 579.664 32.6535C579.994 33.3203 580.216 34.02 580.485 34.7047C581.191 34.12 581.805 33.4338 582.616 32.9686C585.642 31.2385 588.706 29.5465 591.879 28.0023C592.021 27.9329 594.056 29.4539 594.053 30.2312C594 43.4127 600.568 55.3861 604.088 67.9172C607.731 80.8867 609.109 94.4348 609.559 107.77C610.318 130.385 608.82 152.987 602.634 175.196C601.7 178.551 600.025 181.779 598.574 185.033C596.346 190.033 592.573 192.481 585.254 191.807C580.429 191.363 575.361 193.005 570.364 193.281C563.253 193.673 556.11 193.71 548.979 193.783C547.993 193.794 546.609 193.366 546.066 192.762C542.939 189.268 540.245 186.407 535.831 192.121C535.346 192.747 529.217 190.831 525.947 189.663C524.944 189.304 524.743 187.505 524.175 186.366C520.385 189.055 516.907 185.602 513.84 185.918C508.194 186.497 505.266 186.661 502.512 182.846C500.666 180.29 499.223 177.478 498.132 174.65C484.983 140.517 482.526 105.886 491.003 70.8017C493.48 60.5577 496.129 50.3376 498.995 40.1601C499.697 37.6654 499.315 34.1521 505.358 34.6158C507.112 34.7502 508.964 32.0994 509.648 35.6605C509.732 36.1033 511.668 36.8485 512.199 36.623C516.067 34.9832 517.83 35.5066 517.461 39.276C517.398 39.9376 518.579 40.6783 519.185 41.3817C519.831 40.8821 520.623 40.458 521.092 39.8674C521.917 38.8295 522.194 37.2181 523.319 36.682C526.585 35.1288 530.156 33.9916 533.608 32.6908C534.148 34.9683 534.778 37.2345 535.204 39.5254C535.774 42.6011 536.186 45.6946 536.665 48.7808C538.008 45.9239 539.566 43.1185 540.64 40.1982C542.015 36.4594 542.888 33.2837 548.899 37.3383C550.258 38.2545 554.5 36.4243 557.417 35.8583L557.151 35.8688ZM895.744 153.252C896.666 153.549 897.158 153.708 897.651 153.867C897.793 152.738 897.984 151.608 898.012 150.477C898.014 150.348 897.092 150.207 896.601 150.071C896.309 151.151 896.02 152.231 895.744 153.252ZM891.746 117.275C892.033 100.134 893.026 82.9985 900.507 66.7561C903.087 61.1568 908.149 56.2955 912.074 51.097C912.645 51.4072 913.64 51.6697 913.705 52.0368C913.966 53.5022 913.844 55.0088 914.053 56.4817C914.139 57.0746 914.714 57.6219 915.067 58.1893C915.475 57.8604 915.912 57.5501 916.276 57.1927C916.465 57.0088 916.501 56.7306 916.649 56.5153C918.384 54.0002 920.519 49.2233 921.797 49.3676C927.482 50.0039 924.451 54.4764 925.614 57.266C925.845 57.8215 926.76 58.5819 927.329 58.5639C928.076 58.5415 929.098 57.974 929.468 57.414C930.763 55.4499 931.29 52.9445 933.141 51.4902C934.964 50.057 938.043 49.6487 940.571 48.7904C940.98 50.2424 941.537 51.6786 941.765 53.1471C942.26 56.3389 942.588 59.5471 942.984 62.7479C944.715 59.9314 946.47 57.1239 948.161 54.291C948.556 53.6271 948.769 52.8861 948.997 52.1661C950.741 46.6438 952.821 51.7422 954.7 52.0428C954.075 52.3381 953.498 52.6364 952.92 52.9332C953.099 52.9332 953.344 52.993 953.449 52.922C953.848 52.6551 954.201 52.3448 954.57 52.0517C956.734 52.5512 960.608 53.7609 960.808 53.4484C964.991 46.9474 965.115 51.1433 965.774 54.522C965.796 54.6454 967.78 54.8159 968.482 54.4764C969.125 54.1661 969.205 53.1658 969.644 52.516C973.222 47.2001 973.23 47.2031 978.249 52.0682C977.645 52.3927 977.079 52.7187 976.515 53.0461C976.712 53.0656 977.01 53.1598 977.088 53.0917C977.451 52.771 977.753 52.4069 978.077 52.0585C978.963 50.0555 979.179 47.8745 982.325 51.2629C984.275 53.3609 988.414 58.1841 990.942 51.0117C991.104 50.5474 992.416 49.873 992.834 50.0099C996.449 51.1912 1000.27 52.2095 1003.4 53.9837C1004.75 54.7456 1004.68 57.1673 1005.17 58.851C1009.11 72.3397 1013.47 85.7604 1016.82 99.344C1019.61 110.656 1021.2 121.896 1020.57 133.788C1019.81 148.211 1015.94 161.732 1011.67 175.409C1010.32 179.744 1007.62 183.849 1006.69 188.219C1004.75 197.326 997.591 200.785 987.053 201.408C984.704 201.547 982.369 202.076 980.086 202.594C972.539 204.304 965.2 205.474 957.195 203.49C951.976 202.196 945.946 203.123 940.579 202.069C933.807 200.739 927.489 197.891 920.706 196.614C906.702 193.976 899.8 186.443 896.168 175.988C892.003 163.998 892.94 151.867 893.964 139.706C895.072 139.16 897.174 138.553 897.129 138.079C896.733 133.998 895.953 129.941 895.287 125.877L895.283 126.213C895.285 123.989 895.289 121.766 895.291 119.542L895.297 119.841C896.2 113.312 897.145 106.787 897.961 100.251C898.066 99.4166 897.491 98.5283 897.231 97.6633C896.643 98.4109 895.709 99.107 895.522 99.9138C894.178 105.689 892.986 111.485 891.746 117.275ZM747.396 39.2978C749.972 40.4999 752.404 42.0724 755.179 42.7562C756.678 43.1272 759.156 42.3515 760.49 41.4343C762.461 40.078 764.502 34.1711 764.462 41.9707C764.46 42.5489 765.268 43.1295 765.7 43.7085C766.538 43.0517 767.759 42.516 768.156 41.7178C770.397 37.2121 771.935 37.4814 774.139 41.8413C775.109 43.7541 777.085 47.8581 780.564 42.703C780.729 42.4592 786.058 36.6832 789.571 42.1958C789.81 42.5736 791.24 42.6312 792.085 42.5669C797.922 42.1218 797.246 42.1495 797.798 46.8961C799.556 61.9857 800.099 77.3588 804.314 92.0303C813.774 124.954 807.17 156.286 793.963 187.409C791.644 192.871 786.681 194.816 780.296 195.799C774.631 196.671 768.096 195.309 763.709 199.703C754.654 197.514 743.921 201.276 736.131 194.878C733.985 193.114 733.473 193.284 730.651 194.635C723.831 197.901 717.477 193.008 710.753 192.325C709.355 192.182 708.042 190.611 706.777 190.682C695.396 191.327 690.908 185.018 689.859 178.037C687.599 163.005 685.966 147.824 685.825 132.694C685.585 106.731 688.138 80.9025 698.451 56.0077C700.091 52.0474 699.934 47.1153 706.307 45.0812C708.424 44.4049 710.179 39.9935 711.588 45.3857C712.982 44.969 714.458 44.6735 715.751 44.108C717.439 43.3696 718.98 42.4195 720.585 41.5592C720.889 42.9125 721.425 44.2621 721.451 45.6168C721.509 48.782 721.325 51.9486 721.239 55.116C723.003 52.1491 724.588 49.1014 726.592 46.2437C727.998 44.2381 729.498 41.664 731.804 40.8014C736.705 38.9679 738.685 40.6361 738.551 45.0416C738.414 49.5263 738.771 54.0208 738.911 58.5108C741.141 54.2303 743.517 49.9924 745.541 45.649C746.494 43.6022 746.776 41.3535 747.363 39.196L747.396 39.2978ZM1590.2 863.65C1589.03 863.731 1587.1 863.948 1585.16 863.972C1583.65 863.99 1582.06 863.468 1580.64 863.709C1575.38 864.605 1569.47 867.445 1565.14 866.294C1560.2 864.984 1555.98 862.126 1550.14 862.746C1549.1 862.855 1547.65 861.558 1546.69 860.696C1542.63 857.065 1538.32 854.925 1532.42 858.262C1531.49 858.79 1529.28 859.281 1529.17 859.118C1525.64 853.952 1518.81 854.912 1513.34 853.425C1512.35 853.157 1511.2 852.433 1510.43 852.643C1504.76 854.184 1503.49 850.459 1501.74 847.801C1493.22 834.807 1489.62 820.736 1488.14 806.207C1485.63 781.517 1491.78 757.571 1497.56 733.592C1498.67 728.95 1499.66 724.247 1501.44 719.761C1503.46 714.67 1505.85 714.149 1512.08 716.383C1513.08 716.743 1514.47 717.244 1515.29 716.956C1528.2 712.422 1541.35 716.345 1554.37 716.039C1559.82 715.911 1565.24 715.22 1570.69 714.858C1577.12 714.431 1583.55 713.991 1590 713.737C1594.07 713.576 1595.75 715.153 1596.16 718.667C1600.07 751.911 1601.29 785.206 1600.08 818.579C1599.77 827.274 1600.01 835.99 1600.28 844.69C1600.51 851.949 1596.01 857.466 1590.2 863.65ZM1548.67 486.919C1551.25 488.122 1553.68 489.696 1556.45 490.381C1557.95 490.752 1560.42 489.976 1561.76 489.058C1563.73 487.7 1565.77 481.787 1565.73 489.594C1565.72 490.173 1566.53 490.754 1566.96 491.334C1567.8 490.677 1569.02 490.14 1569.42 489.341C1571.66 484.831 1573.19 485.101 1575.4 489.465C1576.36 491.38 1578.34 495.488 1581.81 490.328C1581.98 490.083 1587.3 484.302 1590.81 489.82C1591.05 490.198 1592.48 490.256 1593.33 490.191C1599.16 489.746 1598.48 489.773 1599.04 494.525C1600.79 509.629 1601.33 525.017 1605.55 539.703C1615 572.659 1608.4 604.021 1595.2 635.174C1592.89 640.642 1587.93 642.588 1581.55 643.572C1575.89 644.445 1569.36 643.082 1564.97 647.481C1555.93 645.289 1545.2 649.055 1537.42 642.65C1535.27 640.885 1534.76 641.055 1531.94 642.408C1525.13 645.678 1518.78 640.779 1512.06 640.095C1510.66 639.952 1509.35 638.38 1508.09 638.451C1496.72 639.096 1492.23 632.781 1491.18 625.793C1488.93 610.746 1487.29 595.551 1487.15 580.406C1486.91 554.418 1489.46 528.564 1499.77 503.645C1501.41 499.681 1501.25 494.744 1507.62 492.708C1509.73 492.031 1511.49 487.615 1512.9 493.013C1514.29 492.596 1515.76 492.3 1517.06 491.734C1518.74 490.995 1520.28 490.044 1521.89 489.183C1522.19 490.537 1522.72 491.888 1522.75 493.244C1522.81 496.412 1522.62 499.582 1522.54 502.753C1524.3 499.783 1525.88 496.732 1527.89 493.872C1529.29 491.864 1530.79 489.287 1533.09 488.424C1537.99 486.589 1539.97 488.259 1539.84 492.668C1539.7 497.157 1540.06 501.656 1540.2 506.151C1542.42 501.866 1544.8 497.624 1546.82 493.276C1547.77 491.228 1548.06 488.977 1548.64 486.817L1548.67 486.919ZM1590.2 418.807C1589.03 418.888 1587.1 419.105 1585.16 419.129C1583.65 419.148 1582.06 418.625 1580.64 418.866C1575.38 419.763 1569.47 422.603 1565.14 421.451C1560.2 420.142 1555.98 417.283 1550.14 417.903C1549.1 418.012 1547.65 416.715 1546.69 415.854C1542.63 412.222 1538.32 410.082 1532.42 413.42C1531.49 413.948 1529.28 414.438 1529.17 414.275C1525.64 409.109 1518.81 410.069 1513.34 408.582C1512.35 408.315 1511.2 407.591 1510.43 407.801C1504.76 409.342 1503.49 405.617 1501.74 402.958C1493.22 389.964 1489.62 375.893 1488.14 361.364C1485.63 336.675 1491.78 312.728 1497.56 288.749C1498.67 284.107 1499.66 279.405 1501.44 274.918C1503.46 269.827 1505.85 269.306 1512.08 271.54C1513.08 271.9 1514.47 272.401 1515.29 272.113C1528.2 267.58 1541.35 271.502 1554.37 271.196C1559.82 271.068 1565.24 270.377 1570.69 270.015C1577.12 269.589 1583.55 269.148 1590 268.894C1594.07 268.733 1595.75 270.311 1596.16 273.825C1600.07 307.068 1601.29 340.363 1600.08 373.736C1599.77 382.431 1600.01 391.148 1600.28 399.847C1600.51 407.106 1596.01 412.623 1590.2 418.807ZM1548.67 42.0127C1551.25 43.2161 1553.68 44.7901 1556.45 45.4745C1557.95 45.8459 1560.42 45.0694 1561.76 44.1513C1563.73 42.7937 1565.77 36.8811 1565.73 44.6882C1565.72 45.2671 1566.53 45.8489 1566.96 46.4277C1567.8 45.7703 1569.02 45.2341 1569.42 44.4351C1571.66 39.925 1573.19 40.1946 1575.4 44.5594C1576.36 46.4734 1578.34 50.5814 1581.81 45.4213C1581.98 45.1772 1587.3 39.3956 1590.81 44.9136C1591.05 45.2918 1592.48 45.3494 1593.33 45.285C1599.16 44.8402 1598.48 44.8672 1599.04 49.6184C1600.79 64.7227 1601.33 80.1108 1605.55 94.7965C1615 127.752 1608.4 159.115 1595.2 190.268C1592.89 195.736 1587.93 197.682 1581.55 198.666C1575.89 199.539 1569.36 198.176 1564.97 202.575C1555.93 200.383 1545.2 204.149 1537.42 197.744C1535.27 195.979 1534.76 196.149 1531.94 197.501C1525.13 200.771 1518.78 195.873 1512.06 195.189C1510.66 195.046 1509.35 193.473 1508.09 193.545C1496.72 194.189 1492.23 187.875 1491.18 180.887C1488.93 165.84 1487.29 150.644 1487.15 135.5C1486.91 109.511 1489.46 83.6579 1499.77 58.7389C1501.41 54.7747 1501.25 49.8386 1507.62 47.8018C1509.73 47.1249 1511.49 42.7091 1512.9 48.1066C1514.29 47.6895 1515.76 47.3937 1517.06 46.8276C1518.74 46.0885 1520.28 45.1375 1521.89 44.2764C1522.19 45.631 1522.72 46.9818 1522.75 48.3379C1522.81 51.5062 1522.62 54.6759 1522.54 57.8464C1524.3 54.8766 1525.88 51.8267 1527.89 48.9654C1529.29 46.9586 1530.79 44.382 1533.09 43.5178C1537.99 41.6825 1539.97 43.3523 1539.84 47.7621C1539.7 52.2512 1540.06 56.7501 1540.2 61.2445C1542.42 56.9598 1544.8 52.7177 1546.82 48.3701C1547.77 46.3214 1548.06 44.0705 1548.64 41.9109L1548.67 42.0127Z" fill="white" fill-opacity="0.1"/>
</svg>
